<mxfile host="Electron" modified="2023-06-25T19:28:27.468Z" agent="Mozilla/5.0 (Windows NT 10.0; Win64; x64) AppleWebKit/537.36 (KHTML, like Gecko) draw.io/21.1.2 Chrome/106.0.5249.199 Electron/21.4.3 Safari/537.36" etag="4vFhFijqJ4ugmdIjJjD0" version="21.1.2" type="device">
  <diagram name="Page-1" id="B3kwbT99CjHIAxrq9RtP">
    <mxGraphModel dx="3452" dy="2064" grid="1" gridSize="10" guides="1" tooltips="1" connect="1" arrows="1" fold="1" page="1" pageScale="1" pageWidth="850" pageHeight="1100" math="0" shadow="0">
      <root>
        <mxCell id="0" />
        <mxCell id="1" parent="0" />
        <mxCell id="t1tDFdaH-wGw3U1MrJHs-8" style="edgeStyle=orthogonalEdgeStyle;rounded=0;orthogonalLoop=1;jettySize=auto;html=1;" edge="1" parent="1" source="t1tDFdaH-wGw3U1MrJHs-1" target="t1tDFdaH-wGw3U1MrJHs-2">
          <mxGeometry relative="1" as="geometry" />
        </mxCell>
        <mxCell id="t1tDFdaH-wGw3U1MrJHs-1" value="Begin" style="ellipse;whiteSpace=wrap;html=1;" vertex="1" parent="1">
          <mxGeometry x="250" y="50" width="120" height="80" as="geometry" />
        </mxCell>
        <mxCell id="t1tDFdaH-wGw3U1MrJHs-9" style="edgeStyle=orthogonalEdgeStyle;rounded=0;orthogonalLoop=1;jettySize=auto;html=1;entryX=0.5;entryY=0;entryDx=0;entryDy=0;" edge="1" parent="1" source="t1tDFdaH-wGw3U1MrJHs-2" target="t1tDFdaH-wGw3U1MrJHs-3">
          <mxGeometry relative="1" as="geometry" />
        </mxCell>
        <mxCell id="t1tDFdaH-wGw3U1MrJHs-2" value="Set up and configure GPIOs, timers and SPI&amp;nbsp;" style="rounded=0;whiteSpace=wrap;html=1;" vertex="1" parent="1">
          <mxGeometry x="225" y="160" width="170" height="70" as="geometry" />
        </mxCell>
        <mxCell id="t1tDFdaH-wGw3U1MrJHs-10" style="edgeStyle=orthogonalEdgeStyle;rounded=0;orthogonalLoop=1;jettySize=auto;html=1;" edge="1" parent="1" source="t1tDFdaH-wGw3U1MrJHs-3" target="t1tDFdaH-wGw3U1MrJHs-4">
          <mxGeometry relative="1" as="geometry" />
        </mxCell>
        <mxCell id="t1tDFdaH-wGw3U1MrJHs-3" value="Initiate the setup of nRF24L01 module with receive mode with address and channel" style="rounded=0;whiteSpace=wrap;html=1;" vertex="1" parent="1">
          <mxGeometry x="225" y="260" width="170" height="60" as="geometry" />
        </mxCell>
        <mxCell id="t1tDFdaH-wGw3U1MrJHs-11" style="edgeStyle=orthogonalEdgeStyle;rounded=0;orthogonalLoop=1;jettySize=auto;html=1;entryX=0.5;entryY=0;entryDx=0;entryDy=0;" edge="1" parent="1" source="t1tDFdaH-wGw3U1MrJHs-4" target="t1tDFdaH-wGw3U1MrJHs-5">
          <mxGeometry relative="1" as="geometry" />
        </mxCell>
        <mxCell id="t1tDFdaH-wGw3U1MrJHs-4" value="Start timer 2 for input capture to interface with sonicwave module and start timer 3 PWM to control servo motor." style="rounded=0;whiteSpace=wrap;html=1;" vertex="1" parent="1">
          <mxGeometry x="200" y="360" width="220" height="100" as="geometry" />
        </mxCell>
        <mxCell id="t1tDFdaH-wGw3U1MrJHs-12" style="edgeStyle=orthogonalEdgeStyle;rounded=0;orthogonalLoop=1;jettySize=auto;html=1;exitX=0.5;exitY=1;exitDx=0;exitDy=0;entryX=0.5;entryY=0;entryDx=0;entryDy=0;" edge="1" parent="1" source="t1tDFdaH-wGw3U1MrJHs-5" target="t1tDFdaH-wGw3U1MrJHs-6">
          <mxGeometry relative="1" as="geometry" />
        </mxCell>
        <mxCell id="t1tDFdaH-wGw3U1MrJHs-5" value="Assign Mode0 function to ModeFunction variable" style="rounded=0;whiteSpace=wrap;html=1;" vertex="1" parent="1">
          <mxGeometry x="200" y="500" width="220" height="80" as="geometry" />
        </mxCell>
        <mxCell id="t1tDFdaH-wGw3U1MrJHs-13" style="edgeStyle=orthogonalEdgeStyle;rounded=0;orthogonalLoop=1;jettySize=auto;html=1;" edge="1" parent="1" source="t1tDFdaH-wGw3U1MrJHs-6" target="t1tDFdaH-wGw3U1MrJHs-7">
          <mxGeometry relative="1" as="geometry" />
        </mxCell>
        <mxCell id="t1tDFdaH-wGw3U1MrJHs-6" value="Call RotateAngle function to set the servo rotate to where the sonicwave sensor is in forward direction&amp;nbsp;" style="rounded=0;whiteSpace=wrap;html=1;" vertex="1" parent="1">
          <mxGeometry x="200" y="620" width="220" height="90" as="geometry" />
        </mxCell>
        <mxCell id="t1tDFdaH-wGw3U1MrJHs-14" style="edgeStyle=orthogonalEdgeStyle;rounded=0;orthogonalLoop=1;jettySize=auto;html=1;" edge="1" parent="1" source="t1tDFdaH-wGw3U1MrJHs-7">
          <mxGeometry relative="1" as="geometry">
            <mxPoint x="310" y="730" as="targetPoint" />
            <Array as="points">
              <mxPoint x="200" y="780" />
              <mxPoint x="200" y="730" />
            </Array>
          </mxGeometry>
        </mxCell>
        <mxCell id="t1tDFdaH-wGw3U1MrJHs-7" value="Call MainLoop function" style="rounded=0;whiteSpace=wrap;html=1;" vertex="1" parent="1">
          <mxGeometry x="250" y="750" width="120" height="60" as="geometry" />
        </mxCell>
        <mxCell id="t1tDFdaH-wGw3U1MrJHs-23" style="edgeStyle=orthogonalEdgeStyle;rounded=0;orthogonalLoop=1;jettySize=auto;html=1;entryX=0.5;entryY=0;entryDx=0;entryDy=0;" edge="1" parent="1" source="t1tDFdaH-wGw3U1MrJHs-15" target="t1tDFdaH-wGw3U1MrJHs-16">
          <mxGeometry relative="1" as="geometry" />
        </mxCell>
        <mxCell id="t1tDFdaH-wGw3U1MrJHs-15" value="MainLoop" style="rounded=0;whiteSpace=wrap;html=1;" vertex="1" parent="1">
          <mxGeometry x="640" y="60" width="120" height="60" as="geometry" />
        </mxCell>
        <mxCell id="t1tDFdaH-wGw3U1MrJHs-24" style="edgeStyle=orthogonalEdgeStyle;rounded=0;orthogonalLoop=1;jettySize=auto;html=1;entryX=0.5;entryY=0;entryDx=0;entryDy=0;" edge="1" parent="1" source="t1tDFdaH-wGw3U1MrJHs-16" target="t1tDFdaH-wGw3U1MrJHs-18">
          <mxGeometry relative="1" as="geometry" />
        </mxCell>
        <mxCell id="t1tDFdaH-wGw3U1MrJHs-16" value="Check is data in the nRF24L01 module is available" style="rounded=0;whiteSpace=wrap;html=1;" vertex="1" parent="1">
          <mxGeometry x="640" y="160" width="120" height="60" as="geometry" />
        </mxCell>
        <mxCell id="t1tDFdaH-wGw3U1MrJHs-25" style="edgeStyle=orthogonalEdgeStyle;rounded=0;orthogonalLoop=1;jettySize=auto;html=1;" edge="1" parent="1" source="t1tDFdaH-wGw3U1MrJHs-18" target="t1tDFdaH-wGw3U1MrJHs-21">
          <mxGeometry relative="1" as="geometry" />
        </mxCell>
        <mxCell id="t1tDFdaH-wGw3U1MrJHs-27" style="edgeStyle=orthogonalEdgeStyle;rounded=0;orthogonalLoop=1;jettySize=auto;html=1;entryX=0;entryY=0.5;entryDx=0;entryDy=0;" edge="1" parent="1" source="t1tDFdaH-wGw3U1MrJHs-18" target="t1tDFdaH-wGw3U1MrJHs-19">
          <mxGeometry relative="1" as="geometry" />
        </mxCell>
        <mxCell id="t1tDFdaH-wGw3U1MrJHs-18" value="&lt;span style=&quot;color: rgb(0, 0, 0); font-family: Helvetica; font-size: 12px; font-style: normal; font-variant-ligatures: normal; font-variant-caps: normal; font-weight: 400; letter-spacing: normal; orphans: 2; text-align: center; text-indent: 0px; text-transform: none; widows: 2; word-spacing: 0px; -webkit-text-stroke-width: 0px; background-color: rgb(251, 251, 251); text-decoration-thickness: initial; text-decoration-style: initial; text-decoration-color: initial; float: none; display: inline !important;&quot;&gt;Is data available?&lt;/span&gt;" style="rhombus;whiteSpace=wrap;html=1;" vertex="1" parent="1">
          <mxGeometry x="625" y="250" width="150" height="80" as="geometry" />
        </mxCell>
        <mxCell id="t1tDFdaH-wGw3U1MrJHs-28" style="edgeStyle=orthogonalEdgeStyle;rounded=0;orthogonalLoop=1;jettySize=auto;html=1;entryX=0;entryY=0.5;entryDx=0;entryDy=0;" edge="1" parent="1" source="t1tDFdaH-wGw3U1MrJHs-19" target="t1tDFdaH-wGw3U1MrJHs-20">
          <mxGeometry relative="1" as="geometry" />
        </mxCell>
        <mxCell id="t1tDFdaH-wGw3U1MrJHs-19" value="Store data into the RX_Data array" style="rounded=0;whiteSpace=wrap;html=1;" vertex="1" parent="1">
          <mxGeometry x="870" y="260" width="120" height="60" as="geometry" />
        </mxCell>
        <mxCell id="t1tDFdaH-wGw3U1MrJHs-29" style="edgeStyle=orthogonalEdgeStyle;rounded=0;orthogonalLoop=1;jettySize=auto;html=1;entryX=1;entryY=0.5;entryDx=0;entryDy=0;" edge="1" parent="1" source="t1tDFdaH-wGw3U1MrJHs-20" target="t1tDFdaH-wGw3U1MrJHs-22">
          <mxGeometry relative="1" as="geometry">
            <mxPoint x="1250" y="550" as="targetPoint" />
            <Array as="points">
              <mxPoint x="1220" y="290" />
              <mxPoint x="1220" y="530" />
            </Array>
          </mxGeometry>
        </mxCell>
        <mxCell id="t1tDFdaH-wGw3U1MrJHs-20" value="Call ProcessReceivedValue function" style="rounded=0;whiteSpace=wrap;html=1;" vertex="1" parent="1">
          <mxGeometry x="1030" y="260" width="160" height="60" as="geometry" />
        </mxCell>
        <mxCell id="t1tDFdaH-wGw3U1MrJHs-26" style="edgeStyle=orthogonalEdgeStyle;rounded=0;orthogonalLoop=1;jettySize=auto;html=1;entryX=0.5;entryY=0;entryDx=0;entryDy=0;" edge="1" parent="1" source="t1tDFdaH-wGw3U1MrJHs-21" target="t1tDFdaH-wGw3U1MrJHs-22">
          <mxGeometry relative="1" as="geometry" />
        </mxCell>
        <mxCell id="t1tDFdaH-wGw3U1MrJHs-21" value="Call ModeFunction function pointer" style="rounded=0;whiteSpace=wrap;html=1;" vertex="1" parent="1">
          <mxGeometry x="640" y="390" width="120" height="60" as="geometry" />
        </mxCell>
        <mxCell id="t1tDFdaH-wGw3U1MrJHs-22" value="End" style="ellipse;whiteSpace=wrap;html=1;" vertex="1" parent="1">
          <mxGeometry x="640" y="490" width="120" height="80" as="geometry" />
        </mxCell>
        <mxCell id="t1tDFdaH-wGw3U1MrJHs-67" style="edgeStyle=orthogonalEdgeStyle;rounded=0;orthogonalLoop=1;jettySize=auto;html=1;" edge="1" parent="1" source="t1tDFdaH-wGw3U1MrJHs-30" target="t1tDFdaH-wGw3U1MrJHs-31">
          <mxGeometry relative="1" as="geometry" />
        </mxCell>
        <mxCell id="t1tDFdaH-wGw3U1MrJHs-30" value="ProcessReceivedValue function" style="rounded=0;whiteSpace=wrap;html=1;" vertex="1" parent="1">
          <mxGeometry x="1450" y="40" width="160" height="60" as="geometry" />
        </mxCell>
        <mxCell id="t1tDFdaH-wGw3U1MrJHs-49" style="edgeStyle=orthogonalEdgeStyle;rounded=0;orthogonalLoop=1;jettySize=auto;html=1;entryX=0.5;entryY=0;entryDx=0;entryDy=0;" edge="1" parent="1" source="t1tDFdaH-wGw3U1MrJHs-31" target="t1tDFdaH-wGw3U1MrJHs-32">
          <mxGeometry relative="1" as="geometry" />
        </mxCell>
        <mxCell id="t1tDFdaH-wGw3U1MrJHs-31" value="Check the first element in the RX_Data&amp;nbsp;" style="rounded=0;whiteSpace=wrap;html=1;" vertex="1" parent="1">
          <mxGeometry x="1450" y="165" width="160" height="60" as="geometry" />
        </mxCell>
        <mxCell id="t1tDFdaH-wGw3U1MrJHs-46" style="edgeStyle=orthogonalEdgeStyle;rounded=0;orthogonalLoop=1;jettySize=auto;html=1;entryX=0;entryY=0.5;entryDx=0;entryDy=0;" edge="1" parent="1" source="t1tDFdaH-wGw3U1MrJHs-32" target="t1tDFdaH-wGw3U1MrJHs-37">
          <mxGeometry relative="1" as="geometry" />
        </mxCell>
        <mxCell id="t1tDFdaH-wGw3U1MrJHs-50" style="edgeStyle=orthogonalEdgeStyle;rounded=0;orthogonalLoop=1;jettySize=auto;html=1;entryX=0.5;entryY=0;entryDx=0;entryDy=0;" edge="1" parent="1" source="t1tDFdaH-wGw3U1MrJHs-32" target="t1tDFdaH-wGw3U1MrJHs-47">
          <mxGeometry relative="1" as="geometry" />
        </mxCell>
        <mxCell id="t1tDFdaH-wGw3U1MrJHs-32" value="RX_Data[0] = &#39;M&#39;?" style="rhombus;whiteSpace=wrap;html=1;" vertex="1" parent="1">
          <mxGeometry x="1445" y="270" width="170" height="80" as="geometry" />
        </mxCell>
        <mxCell id="t1tDFdaH-wGw3U1MrJHs-33" value="Yes" style="text;html=1;strokeColor=none;fillColor=none;align=center;verticalAlign=middle;whiteSpace=wrap;rounded=0;" vertex="1" parent="1">
          <mxGeometry x="775" y="250" width="60" height="30" as="geometry" />
        </mxCell>
        <mxCell id="t1tDFdaH-wGw3U1MrJHs-34" value="No" style="text;html=1;strokeColor=none;fillColor=none;align=center;verticalAlign=middle;whiteSpace=wrap;rounded=0;" vertex="1" parent="1">
          <mxGeometry x="700" y="330" width="60" height="30" as="geometry" />
        </mxCell>
        <mxCell id="t1tDFdaH-wGw3U1MrJHs-35" value="Yes" style="text;html=1;strokeColor=none;fillColor=none;align=center;verticalAlign=middle;whiteSpace=wrap;rounded=0;" vertex="1" parent="1">
          <mxGeometry x="1625" y="270" width="60" height="30" as="geometry" />
        </mxCell>
        <mxCell id="t1tDFdaH-wGw3U1MrJHs-36" value="No" style="text;html=1;strokeColor=none;fillColor=none;align=center;verticalAlign=middle;whiteSpace=wrap;rounded=0;" vertex="1" parent="1">
          <mxGeometry x="1550" y="350" width="60" height="30" as="geometry" />
        </mxCell>
        <mxCell id="t1tDFdaH-wGw3U1MrJHs-43" style="edgeStyle=orthogonalEdgeStyle;rounded=0;orthogonalLoop=1;jettySize=auto;html=1;entryX=0;entryY=0.5;entryDx=0;entryDy=0;" edge="1" parent="1" source="t1tDFdaH-wGw3U1MrJHs-37" target="t1tDFdaH-wGw3U1MrJHs-38">
          <mxGeometry relative="1" as="geometry" />
        </mxCell>
        <mxCell id="t1tDFdaH-wGw3U1MrJHs-45" style="edgeStyle=orthogonalEdgeStyle;rounded=0;orthogonalLoop=1;jettySize=auto;html=1;entryX=0.5;entryY=0;entryDx=0;entryDy=0;" edge="1" parent="1" source="t1tDFdaH-wGw3U1MrJHs-37" target="t1tDFdaH-wGw3U1MrJHs-39">
          <mxGeometry relative="1" as="geometry" />
        </mxCell>
        <mxCell id="t1tDFdaH-wGw3U1MrJHs-37" value="RX_Data[1] = &#39;0&#39;?" style="rhombus;whiteSpace=wrap;html=1;" vertex="1" parent="1">
          <mxGeometry x="1730" y="270" width="170" height="80" as="geometry" />
        </mxCell>
        <mxCell id="t1tDFdaH-wGw3U1MrJHs-64" style="edgeStyle=orthogonalEdgeStyle;rounded=0;orthogonalLoop=1;jettySize=auto;html=1;" edge="1" parent="1" source="t1tDFdaH-wGw3U1MrJHs-38">
          <mxGeometry relative="1" as="geometry">
            <mxPoint x="2470" y="630" as="targetPoint" />
          </mxGeometry>
        </mxCell>
        <mxCell id="t1tDFdaH-wGw3U1MrJHs-38" value="ModeFunction = Mode0" style="rounded=0;whiteSpace=wrap;html=1;" vertex="1" parent="1">
          <mxGeometry x="1990" y="280" width="120" height="60" as="geometry" />
        </mxCell>
        <mxCell id="t1tDFdaH-wGw3U1MrJHs-65" style="edgeStyle=orthogonalEdgeStyle;rounded=0;orthogonalLoop=1;jettySize=auto;html=1;" edge="1" parent="1" source="t1tDFdaH-wGw3U1MrJHs-39">
          <mxGeometry relative="1" as="geometry">
            <mxPoint x="2470" y="440" as="targetPoint" />
          </mxGeometry>
        </mxCell>
        <mxCell id="t1tDFdaH-wGw3U1MrJHs-39" value="ModeFunction = Mode1" style="rounded=0;whiteSpace=wrap;html=1;" vertex="1" parent="1">
          <mxGeometry x="1755" y="410" width="120" height="60" as="geometry" />
        </mxCell>
        <mxCell id="t1tDFdaH-wGw3U1MrJHs-40" value="No" style="text;html=1;strokeColor=none;fillColor=none;align=center;verticalAlign=middle;whiteSpace=wrap;rounded=0;" vertex="1" parent="1">
          <mxGeometry x="1830" y="360" width="60" height="30" as="geometry" />
        </mxCell>
        <mxCell id="t1tDFdaH-wGw3U1MrJHs-41" value="Yes" style="text;html=1;strokeColor=none;fillColor=none;align=center;verticalAlign=middle;whiteSpace=wrap;rounded=0;" vertex="1" parent="1">
          <mxGeometry x="1900" y="270" width="60" height="30" as="geometry" />
        </mxCell>
        <mxCell id="t1tDFdaH-wGw3U1MrJHs-51" style="edgeStyle=orthogonalEdgeStyle;rounded=0;orthogonalLoop=1;jettySize=auto;html=1;entryX=0.5;entryY=0;entryDx=0;entryDy=0;" edge="1" parent="1" source="t1tDFdaH-wGw3U1MrJHs-47" target="t1tDFdaH-wGw3U1MrJHs-48">
          <mxGeometry relative="1" as="geometry" />
        </mxCell>
        <mxCell id="t1tDFdaH-wGw3U1MrJHs-56" style="edgeStyle=orthogonalEdgeStyle;rounded=0;orthogonalLoop=1;jettySize=auto;html=1;" edge="1" parent="1" source="t1tDFdaH-wGw3U1MrJHs-47" target="t1tDFdaH-wGw3U1MrJHs-52">
          <mxGeometry relative="1" as="geometry" />
        </mxCell>
        <mxCell id="t1tDFdaH-wGw3U1MrJHs-47" value="RX_Data[0] == &#39;L&#39; or&amp;nbsp;&lt;br&gt;RX_Data[0] == &#39;B&#39;?" style="rhombus;whiteSpace=wrap;html=1;" vertex="1" parent="1">
          <mxGeometry x="1420" y="580" width="220" height="100" as="geometry" />
        </mxCell>
        <mxCell id="t1tDFdaH-wGw3U1MrJHs-58" style="edgeStyle=orthogonalEdgeStyle;rounded=0;orthogonalLoop=1;jettySize=auto;html=1;entryX=0;entryY=0.5;entryDx=0;entryDy=0;" edge="1" parent="1" source="t1tDFdaH-wGw3U1MrJHs-48" target="t1tDFdaH-wGw3U1MrJHs-55">
          <mxGeometry relative="1" as="geometry" />
        </mxCell>
        <mxCell id="t1tDFdaH-wGw3U1MrJHs-61" style="edgeStyle=orthogonalEdgeStyle;rounded=0;orthogonalLoop=1;jettySize=auto;html=1;entryX=0.5;entryY=0;entryDx=0;entryDy=0;" edge="1" parent="1" source="t1tDFdaH-wGw3U1MrJHs-48" target="t1tDFdaH-wGw3U1MrJHs-60">
          <mxGeometry relative="1" as="geometry" />
        </mxCell>
        <mxCell id="t1tDFdaH-wGw3U1MrJHs-48" value="RX_Data[0] == &#39;U&#39; or&amp;nbsp;&lt;br&gt;RX_Data[0] == &#39;R&#39;?" style="rhombus;whiteSpace=wrap;html=1;" vertex="1" parent="1">
          <mxGeometry x="1420" y="740" width="220" height="100" as="geometry" />
        </mxCell>
        <mxCell id="t1tDFdaH-wGw3U1MrJHs-57" style="edgeStyle=orthogonalEdgeStyle;rounded=0;orthogonalLoop=1;jettySize=auto;html=1;" edge="1" parent="1" source="t1tDFdaH-wGw3U1MrJHs-52" target="t1tDFdaH-wGw3U1MrJHs-53">
          <mxGeometry relative="1" as="geometry" />
        </mxCell>
        <mxCell id="t1tDFdaH-wGw3U1MrJHs-52" value="Assign command in RX_Data[0] to DataPackage.command1" style="rounded=0;whiteSpace=wrap;html=1;" vertex="1" parent="1">
          <mxGeometry x="1755" y="590" width="205" height="80" as="geometry" />
        </mxCell>
        <mxCell id="t1tDFdaH-wGw3U1MrJHs-62" style="edgeStyle=orthogonalEdgeStyle;rounded=0;orthogonalLoop=1;jettySize=auto;html=1;entryX=1;entryY=0.5;entryDx=0;entryDy=0;" edge="1" parent="1" source="t1tDFdaH-wGw3U1MrJHs-53" target="t1tDFdaH-wGw3U1MrJHs-60">
          <mxGeometry relative="1" as="geometry">
            <Array as="points">
              <mxPoint x="2470" y="630" />
              <mxPoint x="2470" y="960" />
            </Array>
          </mxGeometry>
        </mxCell>
        <mxCell id="t1tDFdaH-wGw3U1MrJHs-53" value="Assign value in MappingValue function return with parameter is the result of the ConvertStringToInt Function being subtracted by 2048 to DataPackage.data" style="rounded=0;whiteSpace=wrap;html=1;" vertex="1" parent="1">
          <mxGeometry x="2030" y="575" width="300" height="110" as="geometry" />
        </mxCell>
        <mxCell id="t1tDFdaH-wGw3U1MrJHs-63" style="edgeStyle=orthogonalEdgeStyle;rounded=0;orthogonalLoop=1;jettySize=auto;html=1;" edge="1" parent="1" source="t1tDFdaH-wGw3U1MrJHs-54">
          <mxGeometry relative="1" as="geometry">
            <mxPoint x="2470" y="790" as="targetPoint" />
          </mxGeometry>
        </mxCell>
        <mxCell id="t1tDFdaH-wGw3U1MrJHs-54" value="Assign value in MappingValue function return with parameter is the result of the ConvertStringToInt Function subtracted with 2048 to DataPackage.data" style="rounded=0;whiteSpace=wrap;html=1;" vertex="1" parent="1">
          <mxGeometry x="2030" y="735" width="300" height="110" as="geometry" />
        </mxCell>
        <mxCell id="t1tDFdaH-wGw3U1MrJHs-59" style="edgeStyle=orthogonalEdgeStyle;rounded=0;orthogonalLoop=1;jettySize=auto;html=1;" edge="1" parent="1" source="t1tDFdaH-wGw3U1MrJHs-55" target="t1tDFdaH-wGw3U1MrJHs-54">
          <mxGeometry relative="1" as="geometry" />
        </mxCell>
        <mxCell id="t1tDFdaH-wGw3U1MrJHs-55" value="Assign command in RX_Data[0] to DataPackage.command1" style="rounded=0;whiteSpace=wrap;html=1;" vertex="1" parent="1">
          <mxGeometry x="1750" y="750" width="205" height="80" as="geometry" />
        </mxCell>
        <mxCell id="t1tDFdaH-wGw3U1MrJHs-60" value="End" style="ellipse;whiteSpace=wrap;html=1;" vertex="1" parent="1">
          <mxGeometry x="1470" y="920" width="120" height="80" as="geometry" />
        </mxCell>
        <mxCell id="t1tDFdaH-wGw3U1MrJHs-83" style="edgeStyle=orthogonalEdgeStyle;rounded=0;orthogonalLoop=1;jettySize=auto;html=1;entryX=0.5;entryY=0;entryDx=0;entryDy=0;" edge="1" parent="1" source="t1tDFdaH-wGw3U1MrJHs-66" target="t1tDFdaH-wGw3U1MrJHs-68">
          <mxGeometry relative="1" as="geometry" />
        </mxCell>
        <mxCell id="t1tDFdaH-wGw3U1MrJHs-66" value="Mode0 function" style="rounded=0;whiteSpace=wrap;html=1;" vertex="1" parent="1">
          <mxGeometry x="2780" y="160" width="120" height="60" as="geometry" />
        </mxCell>
        <mxCell id="t1tDFdaH-wGw3U1MrJHs-84" style="edgeStyle=orthogonalEdgeStyle;rounded=0;orthogonalLoop=1;jettySize=auto;html=1;entryX=0.5;entryY=0;entryDx=0;entryDy=0;" edge="1" parent="1" source="t1tDFdaH-wGw3U1MrJHs-68" target="t1tDFdaH-wGw3U1MrJHs-69">
          <mxGeometry relative="1" as="geometry" />
        </mxCell>
        <mxCell id="t1tDFdaH-wGw3U1MrJHs-68" value="Switch DataPackage.command" style="rounded=0;whiteSpace=wrap;html=1;" vertex="1" parent="1">
          <mxGeometry x="2755" y="250" width="170" height="80" as="geometry" />
        </mxCell>
        <mxCell id="t1tDFdaH-wGw3U1MrJHs-85" style="edgeStyle=orthogonalEdgeStyle;rounded=0;orthogonalLoop=1;jettySize=auto;html=1;" edge="1" parent="1" source="t1tDFdaH-wGw3U1MrJHs-69" target="t1tDFdaH-wGw3U1MrJHs-70">
          <mxGeometry relative="1" as="geometry" />
        </mxCell>
        <mxCell id="t1tDFdaH-wGw3U1MrJHs-89" style="edgeStyle=orthogonalEdgeStyle;rounded=0;orthogonalLoop=1;jettySize=auto;html=1;entryX=0;entryY=0.5;entryDx=0;entryDy=0;" edge="1" parent="1" source="t1tDFdaH-wGw3U1MrJHs-69" target="t1tDFdaH-wGw3U1MrJHs-73">
          <mxGeometry relative="1" as="geometry" />
        </mxCell>
        <mxCell id="t1tDFdaH-wGw3U1MrJHs-69" value="Switch DataPackage.command = &#39;L&#39;?" style="rhombus;whiteSpace=wrap;html=1;" vertex="1" parent="1">
          <mxGeometry x="2725" y="360" width="230" height="120" as="geometry" />
        </mxCell>
        <mxCell id="t1tDFdaH-wGw3U1MrJHs-86" style="edgeStyle=orthogonalEdgeStyle;rounded=0;orthogonalLoop=1;jettySize=auto;html=1;entryX=0.5;entryY=0;entryDx=0;entryDy=0;" edge="1" parent="1" source="t1tDFdaH-wGw3U1MrJHs-70" target="t1tDFdaH-wGw3U1MrJHs-71">
          <mxGeometry relative="1" as="geometry" />
        </mxCell>
        <mxCell id="t1tDFdaH-wGw3U1MrJHs-90" style="edgeStyle=orthogonalEdgeStyle;rounded=0;orthogonalLoop=1;jettySize=auto;html=1;entryX=0;entryY=0.5;entryDx=0;entryDy=0;" edge="1" parent="1" source="t1tDFdaH-wGw3U1MrJHs-70" target="t1tDFdaH-wGw3U1MrJHs-75">
          <mxGeometry relative="1" as="geometry" />
        </mxCell>
        <mxCell id="t1tDFdaH-wGw3U1MrJHs-70" value="Switch DataPackage.command = &#39;R&#39;?" style="rhombus;whiteSpace=wrap;html=1;" vertex="1" parent="1">
          <mxGeometry x="2725" y="530" width="230" height="120" as="geometry" />
        </mxCell>
        <mxCell id="t1tDFdaH-wGw3U1MrJHs-87" style="edgeStyle=orthogonalEdgeStyle;rounded=0;orthogonalLoop=1;jettySize=auto;html=1;entryX=0.5;entryY=0;entryDx=0;entryDy=0;" edge="1" parent="1" source="t1tDFdaH-wGw3U1MrJHs-71" target="t1tDFdaH-wGw3U1MrJHs-72">
          <mxGeometry relative="1" as="geometry" />
        </mxCell>
        <mxCell id="t1tDFdaH-wGw3U1MrJHs-91" style="edgeStyle=orthogonalEdgeStyle;rounded=0;orthogonalLoop=1;jettySize=auto;html=1;entryX=0;entryY=0.5;entryDx=0;entryDy=0;" edge="1" parent="1" source="t1tDFdaH-wGw3U1MrJHs-71" target="t1tDFdaH-wGw3U1MrJHs-77">
          <mxGeometry relative="1" as="geometry" />
        </mxCell>
        <mxCell id="t1tDFdaH-wGw3U1MrJHs-71" value="Switch DataPackage.command = &#39;U&#39;?" style="rhombus;whiteSpace=wrap;html=1;" vertex="1" parent="1">
          <mxGeometry x="2725" y="690" width="230" height="120" as="geometry" />
        </mxCell>
        <mxCell id="t1tDFdaH-wGw3U1MrJHs-88" style="edgeStyle=orthogonalEdgeStyle;rounded=0;orthogonalLoop=1;jettySize=auto;html=1;entryX=0.5;entryY=0;entryDx=0;entryDy=0;" edge="1" parent="1" source="t1tDFdaH-wGw3U1MrJHs-72" target="t1tDFdaH-wGw3U1MrJHs-82">
          <mxGeometry relative="1" as="geometry" />
        </mxCell>
        <mxCell id="t1tDFdaH-wGw3U1MrJHs-92" style="edgeStyle=orthogonalEdgeStyle;rounded=0;orthogonalLoop=1;jettySize=auto;html=1;" edge="1" parent="1" source="t1tDFdaH-wGw3U1MrJHs-72" target="t1tDFdaH-wGw3U1MrJHs-79">
          <mxGeometry relative="1" as="geometry" />
        </mxCell>
        <mxCell id="t1tDFdaH-wGw3U1MrJHs-72" value="Switch DataPackage.command = &#39;B&#39;?" style="rhombus;whiteSpace=wrap;html=1;" vertex="1" parent="1">
          <mxGeometry x="2725" y="860" width="230" height="120" as="geometry" />
        </mxCell>
        <mxCell id="t1tDFdaH-wGw3U1MrJHs-93" style="edgeStyle=orthogonalEdgeStyle;rounded=0;orthogonalLoop=1;jettySize=auto;html=1;entryX=1;entryY=0.5;entryDx=0;entryDy=0;" edge="1" parent="1" source="t1tDFdaH-wGw3U1MrJHs-73" target="t1tDFdaH-wGw3U1MrJHs-80">
          <mxGeometry relative="1" as="geometry">
            <mxPoint x="3340" y="1134" as="targetPoint" />
            <Array as="points">
              <mxPoint x="3370" y="420" />
              <mxPoint x="3370" y="1030" />
            </Array>
          </mxGeometry>
        </mxCell>
        <mxCell id="t1tDFdaH-wGw3U1MrJHs-73" value="Call TurnLeft function" style="rounded=0;whiteSpace=wrap;html=1;" vertex="1" parent="1">
          <mxGeometry x="3050" y="390" width="160" height="60" as="geometry" />
        </mxCell>
        <mxCell id="t1tDFdaH-wGw3U1MrJHs-95" style="edgeStyle=orthogonalEdgeStyle;rounded=0;orthogonalLoop=1;jettySize=auto;html=1;" edge="1" parent="1" source="t1tDFdaH-wGw3U1MrJHs-75">
          <mxGeometry relative="1" as="geometry">
            <mxPoint x="3370" y="590" as="targetPoint" />
          </mxGeometry>
        </mxCell>
        <mxCell id="t1tDFdaH-wGw3U1MrJHs-75" value="Call TurnRight function" style="rounded=0;whiteSpace=wrap;html=1;" vertex="1" parent="1">
          <mxGeometry x="3050" y="560" width="160" height="60" as="geometry" />
        </mxCell>
        <mxCell id="t1tDFdaH-wGw3U1MrJHs-96" style="edgeStyle=orthogonalEdgeStyle;rounded=0;orthogonalLoop=1;jettySize=auto;html=1;" edge="1" parent="1" source="t1tDFdaH-wGw3U1MrJHs-77">
          <mxGeometry relative="1" as="geometry">
            <mxPoint x="3370" y="750" as="targetPoint" />
          </mxGeometry>
        </mxCell>
        <mxCell id="t1tDFdaH-wGw3U1MrJHs-77" value="Call MoveUp function" style="rounded=0;whiteSpace=wrap;html=1;" vertex="1" parent="1">
          <mxGeometry x="3050" y="720" width="160" height="60" as="geometry" />
        </mxCell>
        <mxCell id="t1tDFdaH-wGw3U1MrJHs-97" style="edgeStyle=orthogonalEdgeStyle;rounded=0;orthogonalLoop=1;jettySize=auto;html=1;" edge="1" parent="1" source="t1tDFdaH-wGw3U1MrJHs-79">
          <mxGeometry relative="1" as="geometry">
            <mxPoint x="3370" y="920" as="targetPoint" />
          </mxGeometry>
        </mxCell>
        <mxCell id="t1tDFdaH-wGw3U1MrJHs-79" value="Call MoveBack function" style="rounded=0;whiteSpace=wrap;html=1;" vertex="1" parent="1">
          <mxGeometry x="3050" y="890" width="160" height="60" as="geometry" />
        </mxCell>
        <mxCell id="t1tDFdaH-wGw3U1MrJHs-98" style="edgeStyle=orthogonalEdgeStyle;rounded=0;orthogonalLoop=1;jettySize=auto;html=1;entryX=0.5;entryY=0;entryDx=0;entryDy=0;" edge="1" parent="1" source="t1tDFdaH-wGw3U1MrJHs-80" target="t1tDFdaH-wGw3U1MrJHs-81">
          <mxGeometry relative="1" as="geometry" />
        </mxCell>
        <mxCell id="t1tDFdaH-wGw3U1MrJHs-80" value="Call ClearDataPackage function" style="rounded=0;whiteSpace=wrap;html=1;" vertex="1" parent="1">
          <mxGeometry x="3050" y="1000" width="160" height="60" as="geometry" />
        </mxCell>
        <mxCell id="t1tDFdaH-wGw3U1MrJHs-94" style="edgeStyle=orthogonalEdgeStyle;rounded=0;orthogonalLoop=1;jettySize=auto;html=1;entryX=1;entryY=0.625;entryDx=0;entryDy=0;entryPerimeter=0;" edge="1" parent="1" source="t1tDFdaH-wGw3U1MrJHs-81" target="t1tDFdaH-wGw3U1MrJHs-82">
          <mxGeometry relative="1" as="geometry" />
        </mxCell>
        <mxCell id="t1tDFdaH-wGw3U1MrJHs-81" value="Break" style="rounded=0;whiteSpace=wrap;html=1;" vertex="1" parent="1">
          <mxGeometry x="3070" y="1090" width="120" height="60" as="geometry" />
        </mxCell>
        <mxCell id="t1tDFdaH-wGw3U1MrJHs-82" value="End" style="ellipse;whiteSpace=wrap;html=1;" vertex="1" parent="1">
          <mxGeometry x="2780" y="1070" width="120" height="80" as="geometry" />
        </mxCell>
        <mxCell id="t1tDFdaH-wGw3U1MrJHs-163" style="edgeStyle=orthogonalEdgeStyle;rounded=0;orthogonalLoop=1;jettySize=auto;html=1;entryX=0.5;entryY=0;entryDx=0;entryDy=0;" edge="1" parent="1" source="t1tDFdaH-wGw3U1MrJHs-99" target="t1tDFdaH-wGw3U1MrJHs-101">
          <mxGeometry relative="1" as="geometry" />
        </mxCell>
        <mxCell id="t1tDFdaH-wGw3U1MrJHs-99" value="Mode1 function" style="rounded=0;whiteSpace=wrap;html=1;" vertex="1" parent="1">
          <mxGeometry x="260" y="1120" width="120" height="60" as="geometry" />
        </mxCell>
        <mxCell id="t1tDFdaH-wGw3U1MrJHs-162" style="edgeStyle=orthogonalEdgeStyle;rounded=0;orthogonalLoop=1;jettySize=auto;html=1;entryX=0;entryY=0.5;entryDx=0;entryDy=0;" edge="1" parent="1" source="t1tDFdaH-wGw3U1MrJHs-101" target="t1tDFdaH-wGw3U1MrJHs-102">
          <mxGeometry relative="1" as="geometry" />
        </mxCell>
        <mxCell id="t1tDFdaH-wGw3U1MrJHs-180" style="edgeStyle=orthogonalEdgeStyle;rounded=0;orthogonalLoop=1;jettySize=auto;html=1;entryX=0;entryY=0.5;entryDx=0;entryDy=0;" edge="1" parent="1" source="t1tDFdaH-wGw3U1MrJHs-101" target="t1tDFdaH-wGw3U1MrJHs-151">
          <mxGeometry relative="1" as="geometry">
            <mxPoint x="320" y="2966.315789473684" as="targetPoint" />
            <Array as="points">
              <mxPoint x="320" y="3005" />
            </Array>
          </mxGeometry>
        </mxCell>
        <mxCell id="t1tDFdaH-wGw3U1MrJHs-101" value="SensorAvailable = 1?" style="rhombus;whiteSpace=wrap;html=1;" vertex="1" parent="1">
          <mxGeometry x="250" y="1210" width="140" height="80" as="geometry" />
        </mxCell>
        <mxCell id="t1tDFdaH-wGw3U1MrJHs-161" style="edgeStyle=orthogonalEdgeStyle;rounded=0;orthogonalLoop=1;jettySize=auto;html=1;entryX=0;entryY=0.5;entryDx=0;entryDy=0;" edge="1" parent="1" source="t1tDFdaH-wGw3U1MrJHs-102" target="t1tDFdaH-wGw3U1MrJHs-115">
          <mxGeometry relative="1" as="geometry" />
        </mxCell>
        <mxCell id="t1tDFdaH-wGw3U1MrJHs-102" value="Call HCSR_Read function to read sensor&#39;s value nd store current value to Distance variable" style="rounded=0;whiteSpace=wrap;html=1;" vertex="1" parent="1">
          <mxGeometry x="440" y="1210" width="230" height="80" as="geometry" />
        </mxCell>
        <mxCell id="t1tDFdaH-wGw3U1MrJHs-103" value="No" style="text;html=1;strokeColor=none;fillColor=none;align=center;verticalAlign=middle;whiteSpace=wrap;rounded=0;" vertex="1" parent="1">
          <mxGeometry x="1580" y="670" width="60" height="30" as="geometry" />
        </mxCell>
        <mxCell id="t1tDFdaH-wGw3U1MrJHs-104" value="Yes" style="text;html=1;strokeColor=none;fillColor=none;align=center;verticalAlign=middle;whiteSpace=wrap;rounded=0;" vertex="1" parent="1">
          <mxGeometry x="1655" y="590" width="60" height="30" as="geometry" />
        </mxCell>
        <mxCell id="t1tDFdaH-wGw3U1MrJHs-105" value="No" style="text;html=1;strokeColor=none;fillColor=none;align=center;verticalAlign=middle;whiteSpace=wrap;rounded=0;" vertex="1" parent="1">
          <mxGeometry x="1590" y="820" width="60" height="30" as="geometry" />
        </mxCell>
        <mxCell id="t1tDFdaH-wGw3U1MrJHs-106" value="Yes" style="text;html=1;strokeColor=none;fillColor=none;align=center;verticalAlign=middle;whiteSpace=wrap;rounded=0;" vertex="1" parent="1">
          <mxGeometry x="1665" y="740" width="60" height="30" as="geometry" />
        </mxCell>
        <mxCell id="t1tDFdaH-wGw3U1MrJHs-107" value="No" style="text;html=1;strokeColor=none;fillColor=none;align=center;verticalAlign=middle;whiteSpace=wrap;rounded=0;" vertex="1" parent="1">
          <mxGeometry x="2900" y="460" width="60" height="30" as="geometry" />
        </mxCell>
        <mxCell id="t1tDFdaH-wGw3U1MrJHs-108" value="Yes" style="text;html=1;strokeColor=none;fillColor=none;align=center;verticalAlign=middle;whiteSpace=wrap;rounded=0;" vertex="1" parent="1">
          <mxGeometry x="2975" y="380" width="60" height="30" as="geometry" />
        </mxCell>
        <mxCell id="t1tDFdaH-wGw3U1MrJHs-109" value="No" style="text;html=1;strokeColor=none;fillColor=none;align=center;verticalAlign=middle;whiteSpace=wrap;rounded=0;" vertex="1" parent="1">
          <mxGeometry x="2908" y="630" width="60" height="30" as="geometry" />
        </mxCell>
        <mxCell id="t1tDFdaH-wGw3U1MrJHs-110" value="Yes" style="text;html=1;strokeColor=none;fillColor=none;align=center;verticalAlign=middle;whiteSpace=wrap;rounded=0;" vertex="1" parent="1">
          <mxGeometry x="2983" y="550" width="60" height="30" as="geometry" />
        </mxCell>
        <mxCell id="t1tDFdaH-wGw3U1MrJHs-111" value="No" style="text;html=1;strokeColor=none;fillColor=none;align=center;verticalAlign=middle;whiteSpace=wrap;rounded=0;" vertex="1" parent="1">
          <mxGeometry x="2890" y="790" width="60" height="30" as="geometry" />
        </mxCell>
        <mxCell id="t1tDFdaH-wGw3U1MrJHs-112" value="Yes" style="text;html=1;strokeColor=none;fillColor=none;align=center;verticalAlign=middle;whiteSpace=wrap;rounded=0;" vertex="1" parent="1">
          <mxGeometry x="2965" y="710" width="60" height="30" as="geometry" />
        </mxCell>
        <mxCell id="t1tDFdaH-wGw3U1MrJHs-113" value="No" style="text;html=1;strokeColor=none;fillColor=none;align=center;verticalAlign=middle;whiteSpace=wrap;rounded=0;" vertex="1" parent="1">
          <mxGeometry x="2890" y="960" width="60" height="30" as="geometry" />
        </mxCell>
        <mxCell id="t1tDFdaH-wGw3U1MrJHs-114" value="Yes" style="text;html=1;strokeColor=none;fillColor=none;align=center;verticalAlign=middle;whiteSpace=wrap;rounded=0;" vertex="1" parent="1">
          <mxGeometry x="2965" y="880" width="60" height="30" as="geometry" />
        </mxCell>
        <mxCell id="t1tDFdaH-wGw3U1MrJHs-136" style="edgeStyle=orthogonalEdgeStyle;rounded=0;orthogonalLoop=1;jettySize=auto;html=1;" edge="1" parent="1" source="t1tDFdaH-wGw3U1MrJHs-115" target="t1tDFdaH-wGw3U1MrJHs-135">
          <mxGeometry relative="1" as="geometry" />
        </mxCell>
        <mxCell id="t1tDFdaH-wGw3U1MrJHs-137" style="edgeStyle=orthogonalEdgeStyle;rounded=0;orthogonalLoop=1;jettySize=auto;html=1;entryX=0;entryY=0.5;entryDx=0;entryDy=0;" edge="1" parent="1" source="t1tDFdaH-wGw3U1MrJHs-115" target="t1tDFdaH-wGw3U1MrJHs-118">
          <mxGeometry relative="1" as="geometry" />
        </mxCell>
        <mxCell id="t1tDFdaH-wGw3U1MrJHs-115" value="Distance &amp;lt; LimitDistance?" style="rhombus;whiteSpace=wrap;html=1;" vertex="1" parent="1">
          <mxGeometry x="730" y="1210" width="170" height="80" as="geometry" />
        </mxCell>
        <mxCell id="t1tDFdaH-wGw3U1MrJHs-138" style="edgeStyle=orthogonalEdgeStyle;rounded=0;orthogonalLoop=1;jettySize=auto;html=1;entryX=0.5;entryY=0;entryDx=0;entryDy=0;" edge="1" parent="1" source="t1tDFdaH-wGw3U1MrJHs-118" target="t1tDFdaH-wGw3U1MrJHs-119">
          <mxGeometry relative="1" as="geometry" />
        </mxCell>
        <mxCell id="t1tDFdaH-wGw3U1MrJHs-118" value="Assign ReadingSensor variable to 0" style="rounded=0;whiteSpace=wrap;html=1;" vertex="1" parent="1">
          <mxGeometry x="1000" y="1220" width="120" height="60" as="geometry" />
        </mxCell>
        <mxCell id="t1tDFdaH-wGw3U1MrJHs-139" style="edgeStyle=orthogonalEdgeStyle;rounded=0;orthogonalLoop=1;jettySize=auto;html=1;entryX=0.5;entryY=0;entryDx=0;entryDy=0;" edge="1" parent="1" source="t1tDFdaH-wGw3U1MrJHs-119" target="t1tDFdaH-wGw3U1MrJHs-120">
          <mxGeometry relative="1" as="geometry" />
        </mxCell>
        <mxCell id="t1tDFdaH-wGw3U1MrJHs-119" value="Call StopMove function to stop car&amp;nbsp;" style="rounded=0;whiteSpace=wrap;html=1;" vertex="1" parent="1">
          <mxGeometry x="1000" y="1330" width="120" height="60" as="geometry" />
        </mxCell>
        <mxCell id="t1tDFdaH-wGw3U1MrJHs-140" style="edgeStyle=orthogonalEdgeStyle;rounded=0;orthogonalLoop=1;jettySize=auto;html=1;" edge="1" parent="1" source="t1tDFdaH-wGw3U1MrJHs-120" target="t1tDFdaH-wGw3U1MrJHs-121">
          <mxGeometry relative="1" as="geometry" />
        </mxCell>
        <mxCell id="t1tDFdaH-wGw3U1MrJHs-120" value="Rotate servo to left" style="rounded=0;whiteSpace=wrap;html=1;" vertex="1" parent="1">
          <mxGeometry x="1000" y="1420" width="120" height="60" as="geometry" />
        </mxCell>
        <mxCell id="t1tDFdaH-wGw3U1MrJHs-141" style="edgeStyle=orthogonalEdgeStyle;rounded=0;orthogonalLoop=1;jettySize=auto;html=1;" edge="1" parent="1" source="t1tDFdaH-wGw3U1MrJHs-121" target="t1tDFdaH-wGw3U1MrJHs-122">
          <mxGeometry relative="1" as="geometry" />
        </mxCell>
        <mxCell id="t1tDFdaH-wGw3U1MrJHs-121" value="Call HCSR_Read function to read sensor&#39;s value and store current value to Distance variable" style="rounded=0;whiteSpace=wrap;html=1;" vertex="1" parent="1">
          <mxGeometry x="945" y="1520" width="230" height="80" as="geometry" />
        </mxCell>
        <mxCell id="t1tDFdaH-wGw3U1MrJHs-142" style="edgeStyle=orthogonalEdgeStyle;rounded=0;orthogonalLoop=1;jettySize=auto;html=1;entryX=0.47;entryY=0.018;entryDx=0;entryDy=0;entryPerimeter=0;" edge="1" parent="1" source="t1tDFdaH-wGw3U1MrJHs-122" target="t1tDFdaH-wGw3U1MrJHs-124">
          <mxGeometry relative="1" as="geometry" />
        </mxCell>
        <mxCell id="t1tDFdaH-wGw3U1MrJHs-122" value="Delay 200 ms" style="rounded=0;whiteSpace=wrap;html=1;" vertex="1" parent="1">
          <mxGeometry x="1000" y="1630" width="120" height="60" as="geometry" />
        </mxCell>
        <mxCell id="t1tDFdaH-wGw3U1MrJHs-144" style="edgeStyle=orthogonalEdgeStyle;rounded=0;orthogonalLoop=1;jettySize=auto;html=1;entryX=0.5;entryY=0;entryDx=0;entryDy=0;" edge="1" parent="1" source="t1tDFdaH-wGw3U1MrJHs-123" target="t1tDFdaH-wGw3U1MrJHs-126">
          <mxGeometry relative="1" as="geometry" />
        </mxCell>
        <mxCell id="t1tDFdaH-wGw3U1MrJHs-123" value="Call HCSR_Read function to read sensor&#39;s value and store current value to Distance variable" style="rounded=0;whiteSpace=wrap;html=1;" vertex="1" parent="1">
          <mxGeometry x="950" y="1870" width="230" height="80" as="geometry" />
        </mxCell>
        <mxCell id="t1tDFdaH-wGw3U1MrJHs-143" style="edgeStyle=orthogonalEdgeStyle;rounded=0;orthogonalLoop=1;jettySize=auto;html=1;" edge="1" parent="1" source="t1tDFdaH-wGw3U1MrJHs-124" target="t1tDFdaH-wGw3U1MrJHs-123">
          <mxGeometry relative="1" as="geometry" />
        </mxCell>
        <mxCell id="t1tDFdaH-wGw3U1MrJHs-124" value="Assign Distance value to valueLeft variable that has been created." style="rounded=0;whiteSpace=wrap;html=1;" vertex="1" parent="1">
          <mxGeometry x="960" y="1730" width="210" height="80" as="geometry" />
        </mxCell>
        <mxCell id="t1tDFdaH-wGw3U1MrJHs-146" style="edgeStyle=orthogonalEdgeStyle;rounded=0;orthogonalLoop=1;jettySize=auto;html=1;entryX=0.5;entryY=0;entryDx=0;entryDy=0;" edge="1" parent="1" source="t1tDFdaH-wGw3U1MrJHs-125" target="t1tDFdaH-wGw3U1MrJHs-129">
          <mxGeometry relative="1" as="geometry" />
        </mxCell>
        <mxCell id="t1tDFdaH-wGw3U1MrJHs-125" value="Assign Distance value to valueLeft variable that has been created." style="rounded=0;whiteSpace=wrap;html=1;" vertex="1" parent="1">
          <mxGeometry x="960" y="2110" width="210" height="80" as="geometry" />
        </mxCell>
        <mxCell id="t1tDFdaH-wGw3U1MrJHs-145" style="edgeStyle=orthogonalEdgeStyle;rounded=0;orthogonalLoop=1;jettySize=auto;html=1;entryX=0.5;entryY=0;entryDx=0;entryDy=0;" edge="1" parent="1" source="t1tDFdaH-wGw3U1MrJHs-126" target="t1tDFdaH-wGw3U1MrJHs-125">
          <mxGeometry relative="1" as="geometry" />
        </mxCell>
        <mxCell id="t1tDFdaH-wGw3U1MrJHs-126" value="Delay 200 ms" style="rounded=0;whiteSpace=wrap;html=1;" vertex="1" parent="1">
          <mxGeometry x="1005" y="1990" width="120" height="60" as="geometry" />
        </mxCell>
        <mxCell id="t1tDFdaH-wGw3U1MrJHs-147" style="edgeStyle=orthogonalEdgeStyle;rounded=0;orthogonalLoop=1;jettySize=auto;html=1;entryX=0.5;entryY=0;entryDx=0;entryDy=0;" edge="1" parent="1" source="t1tDFdaH-wGw3U1MrJHs-129" target="t1tDFdaH-wGw3U1MrJHs-131">
          <mxGeometry relative="1" as="geometry" />
        </mxCell>
        <mxCell id="t1tDFdaH-wGw3U1MrJHs-149" style="edgeStyle=orthogonalEdgeStyle;rounded=0;orthogonalLoop=1;jettySize=auto;html=1;entryX=0;entryY=0.5;entryDx=0;entryDy=0;" edge="1" parent="1" source="t1tDFdaH-wGw3U1MrJHs-129" target="t1tDFdaH-wGw3U1MrJHs-130">
          <mxGeometry relative="1" as="geometry" />
        </mxCell>
        <mxCell id="t1tDFdaH-wGw3U1MrJHs-129" value="valueLeft &amp;lt; 20&lt;br&gt;&amp;nbsp;and valueRight &amp;lt; 20?" style="rhombus;whiteSpace=wrap;html=1;" vertex="1" parent="1">
          <mxGeometry x="965" y="2230" width="200" height="90" as="geometry" />
        </mxCell>
        <mxCell id="t1tDFdaH-wGw3U1MrJHs-157" style="edgeStyle=orthogonalEdgeStyle;rounded=0;orthogonalLoop=1;jettySize=auto;html=1;entryX=1;entryY=0.5;entryDx=0;entryDy=0;" edge="1" parent="1" source="t1tDFdaH-wGw3U1MrJHs-130" target="t1tDFdaH-wGw3U1MrJHs-134">
          <mxGeometry relative="1" as="geometry">
            <mxPoint x="1520" y="2752.1052631578946" as="targetPoint" />
            <Array as="points">
              <mxPoint x="1560" y="2275" />
              <mxPoint x="1560" y="2740" />
              <mxPoint x="1160" y="2740" />
            </Array>
          </mxGeometry>
        </mxCell>
        <mxCell id="t1tDFdaH-wGw3U1MrJHs-130" value="Assign to DirectionValue.back = 5" style="rounded=0;whiteSpace=wrap;html=1;" vertex="1" parent="1">
          <mxGeometry x="1255" y="2230" width="190" height="90" as="geometry" />
        </mxCell>
        <mxCell id="t1tDFdaH-wGw3U1MrJHs-148" style="edgeStyle=orthogonalEdgeStyle;rounded=0;orthogonalLoop=1;jettySize=auto;html=1;" edge="1" parent="1" source="t1tDFdaH-wGw3U1MrJHs-131" target="t1tDFdaH-wGw3U1MrJHs-133">
          <mxGeometry relative="1" as="geometry" />
        </mxCell>
        <mxCell id="t1tDFdaH-wGw3U1MrJHs-150" style="edgeStyle=orthogonalEdgeStyle;rounded=0;orthogonalLoop=1;jettySize=auto;html=1;entryX=0;entryY=0.5;entryDx=0;entryDy=0;" edge="1" parent="1" source="t1tDFdaH-wGw3U1MrJHs-131" target="t1tDFdaH-wGw3U1MrJHs-132">
          <mxGeometry relative="1" as="geometry" />
        </mxCell>
        <mxCell id="t1tDFdaH-wGw3U1MrJHs-131" value="valueLeft &amp;gt; valueRight?" style="rhombus;whiteSpace=wrap;html=1;" vertex="1" parent="1">
          <mxGeometry x="965" y="2380" width="200" height="90" as="geometry" />
        </mxCell>
        <mxCell id="t1tDFdaH-wGw3U1MrJHs-158" style="edgeStyle=orthogonalEdgeStyle;rounded=0;orthogonalLoop=1;jettySize=auto;html=1;" edge="1" parent="1" source="t1tDFdaH-wGw3U1MrJHs-132">
          <mxGeometry relative="1" as="geometry">
            <mxPoint x="1560" y="2425" as="targetPoint" />
          </mxGeometry>
        </mxCell>
        <mxCell id="t1tDFdaH-wGw3U1MrJHs-132" value="Assign to DirectionValue.left = 12" style="rounded=0;whiteSpace=wrap;html=1;" vertex="1" parent="1">
          <mxGeometry x="1255" y="2380" width="190" height="90" as="geometry" />
        </mxCell>
        <mxCell id="t1tDFdaH-wGw3U1MrJHs-156" style="edgeStyle=orthogonalEdgeStyle;rounded=0;orthogonalLoop=1;jettySize=auto;html=1;entryX=0.5;entryY=0;entryDx=0;entryDy=0;" edge="1" parent="1" source="t1tDFdaH-wGw3U1MrJHs-133" target="t1tDFdaH-wGw3U1MrJHs-134">
          <mxGeometry relative="1" as="geometry" />
        </mxCell>
        <mxCell id="t1tDFdaH-wGw3U1MrJHs-133" value="Assign to DirectionValue.right = 12" style="rounded=0;whiteSpace=wrap;html=1;" vertex="1" parent="1">
          <mxGeometry x="970" y="2560" width="190" height="90" as="geometry" />
        </mxCell>
        <mxCell id="t1tDFdaH-wGw3U1MrJHs-160" style="edgeStyle=orthogonalEdgeStyle;rounded=0;orthogonalLoop=1;jettySize=auto;html=1;" edge="1" parent="1" source="t1tDFdaH-wGw3U1MrJHs-134">
          <mxGeometry relative="1" as="geometry">
            <mxPoint x="805" y="2870" as="targetPoint" />
            <Array as="points">
              <mxPoint x="1065" y="2870" />
            </Array>
          </mxGeometry>
        </mxCell>
        <mxCell id="t1tDFdaH-wGw3U1MrJHs-134" value="Add to DirectionValue.back 5" style="rounded=0;whiteSpace=wrap;html=1;" vertex="1" parent="1">
          <mxGeometry x="970" y="2700" width="190" height="90" as="geometry" />
        </mxCell>
        <mxCell id="t1tDFdaH-wGw3U1MrJHs-159" style="edgeStyle=orthogonalEdgeStyle;rounded=0;orthogonalLoop=1;jettySize=auto;html=1;entryX=0.5;entryY=0;entryDx=0;entryDy=0;" edge="1" parent="1" source="t1tDFdaH-wGw3U1MrJHs-135" target="t1tDFdaH-wGw3U1MrJHs-151">
          <mxGeometry relative="1" as="geometry" />
        </mxCell>
        <mxCell id="t1tDFdaH-wGw3U1MrJHs-135" value="Call ResetDirection function" style="rounded=0;whiteSpace=wrap;html=1;" vertex="1" parent="1">
          <mxGeometry x="745" y="2720" width="120" height="60" as="geometry" />
        </mxCell>
        <mxCell id="t1tDFdaH-wGw3U1MrJHs-165" style="edgeStyle=orthogonalEdgeStyle;rounded=0;orthogonalLoop=1;jettySize=auto;html=1;" edge="1" parent="1" source="t1tDFdaH-wGw3U1MrJHs-151" target="t1tDFdaH-wGw3U1MrJHs-152">
          <mxGeometry relative="1" as="geometry" />
        </mxCell>
        <mxCell id="t1tDFdaH-wGw3U1MrJHs-169" style="edgeStyle=orthogonalEdgeStyle;rounded=0;orthogonalLoop=1;jettySize=auto;html=1;" edge="1" parent="1" source="t1tDFdaH-wGw3U1MrJHs-151" target="t1tDFdaH-wGw3U1MrJHs-168">
          <mxGeometry relative="1" as="geometry" />
        </mxCell>
        <mxCell id="t1tDFdaH-wGw3U1MrJHs-151" value="DirectionValue.back &amp;gt; 0?" style="rhombus;whiteSpace=wrap;html=1;" vertex="1" parent="1">
          <mxGeometry x="705" y="2960" width="200" height="90" as="geometry" />
        </mxCell>
        <mxCell id="t1tDFdaH-wGw3U1MrJHs-166" value="" style="edgeStyle=orthogonalEdgeStyle;rounded=0;orthogonalLoop=1;jettySize=auto;html=1;" edge="1" parent="1" source="t1tDFdaH-wGw3U1MrJHs-152" target="t1tDFdaH-wGw3U1MrJHs-153">
          <mxGeometry relative="1" as="geometry" />
        </mxCell>
        <mxCell id="t1tDFdaH-wGw3U1MrJHs-172" style="edgeStyle=orthogonalEdgeStyle;rounded=0;orthogonalLoop=1;jettySize=auto;html=1;" edge="1" parent="1" source="t1tDFdaH-wGw3U1MrJHs-152" target="t1tDFdaH-wGw3U1MrJHs-170">
          <mxGeometry relative="1" as="geometry" />
        </mxCell>
        <mxCell id="t1tDFdaH-wGw3U1MrJHs-152" value="DirectionValue.left &amp;gt; 0?" style="rhombus;whiteSpace=wrap;html=1;" vertex="1" parent="1">
          <mxGeometry x="705" y="3130" width="200" height="90" as="geometry" />
        </mxCell>
        <mxCell id="t1tDFdaH-wGw3U1MrJHs-167" style="edgeStyle=orthogonalEdgeStyle;rounded=0;orthogonalLoop=1;jettySize=auto;html=1;" edge="1" parent="1" source="t1tDFdaH-wGw3U1MrJHs-153" target="t1tDFdaH-wGw3U1MrJHs-155">
          <mxGeometry relative="1" as="geometry" />
        </mxCell>
        <mxCell id="t1tDFdaH-wGw3U1MrJHs-173" style="edgeStyle=orthogonalEdgeStyle;rounded=0;orthogonalLoop=1;jettySize=auto;html=1;entryX=0;entryY=0.5;entryDx=0;entryDy=0;" edge="1" parent="1" source="t1tDFdaH-wGw3U1MrJHs-153" target="t1tDFdaH-wGw3U1MrJHs-171">
          <mxGeometry relative="1" as="geometry" />
        </mxCell>
        <mxCell id="t1tDFdaH-wGw3U1MrJHs-153" value="DirectionValue.right &amp;gt; 0?" style="rhombus;whiteSpace=wrap;html=1;" vertex="1" parent="1">
          <mxGeometry x="705" y="3280" width="200" height="90" as="geometry" />
        </mxCell>
        <mxCell id="t1tDFdaH-wGw3U1MrJHs-176" style="edgeStyle=orthogonalEdgeStyle;rounded=0;orthogonalLoop=1;jettySize=auto;html=1;" edge="1" parent="1" source="t1tDFdaH-wGw3U1MrJHs-155" target="t1tDFdaH-wGw3U1MrJHs-175">
          <mxGeometry relative="1" as="geometry" />
        </mxCell>
        <mxCell id="t1tDFdaH-wGw3U1MrJHs-155" value="&lt;div&gt;	Assign ReadingSensorAvailable = 1&lt;/div&gt;&lt;div&gt;&lt;span style=&quot;&quot;&gt;&lt;/span&gt;and call MoveUp function&lt;/div&gt;" style="rounded=0;whiteSpace=wrap;html=1;" vertex="1" parent="1">
          <mxGeometry x="705" y="3460" width="200" height="60" as="geometry" />
        </mxCell>
        <mxCell id="t1tDFdaH-wGw3U1MrJHs-177" style="edgeStyle=orthogonalEdgeStyle;rounded=0;orthogonalLoop=1;jettySize=auto;html=1;entryX=1;entryY=0.5;entryDx=0;entryDy=0;" edge="1" parent="1" source="t1tDFdaH-wGw3U1MrJHs-168" target="t1tDFdaH-wGw3U1MrJHs-175">
          <mxGeometry relative="1" as="geometry">
            <mxPoint x="1350" y="3662.1052631578946" as="targetPoint" />
            <Array as="points">
              <mxPoint x="1400" y="3006" />
              <mxPoint x="1400" y="3630" />
            </Array>
          </mxGeometry>
        </mxCell>
        <mxCell id="t1tDFdaH-wGw3U1MrJHs-168" value="Call MoveBack function and DirectionValue.back--" style="rounded=0;whiteSpace=wrap;html=1;" vertex="1" parent="1">
          <mxGeometry x="1040" y="2976" width="190" height="60" as="geometry" />
        </mxCell>
        <mxCell id="t1tDFdaH-wGw3U1MrJHs-178" style="edgeStyle=orthogonalEdgeStyle;rounded=0;orthogonalLoop=1;jettySize=auto;html=1;" edge="1" parent="1" source="t1tDFdaH-wGw3U1MrJHs-170">
          <mxGeometry relative="1" as="geometry">
            <mxPoint x="1400" y="3175" as="targetPoint" />
          </mxGeometry>
        </mxCell>
        <mxCell id="t1tDFdaH-wGw3U1MrJHs-170" value="Call TurnLeft function and DirectionValue.left--" style="rounded=0;whiteSpace=wrap;html=1;" vertex="1" parent="1">
          <mxGeometry x="1040" y="3145" width="190" height="60" as="geometry" />
        </mxCell>
        <mxCell id="t1tDFdaH-wGw3U1MrJHs-179" style="edgeStyle=orthogonalEdgeStyle;rounded=0;orthogonalLoop=1;jettySize=auto;html=1;" edge="1" parent="1" source="t1tDFdaH-wGw3U1MrJHs-171">
          <mxGeometry relative="1" as="geometry">
            <mxPoint x="1400" y="3325" as="targetPoint" />
          </mxGeometry>
        </mxCell>
        <mxCell id="t1tDFdaH-wGw3U1MrJHs-171" value="Call TurnRight function and DirectionValue.right--" style="rounded=0;whiteSpace=wrap;html=1;" vertex="1" parent="1">
          <mxGeometry x="1040" y="3295" width="190" height="60" as="geometry" />
        </mxCell>
        <mxCell id="t1tDFdaH-wGw3U1MrJHs-175" value="End" style="ellipse;whiteSpace=wrap;html=1;" vertex="1" parent="1">
          <mxGeometry x="745" y="3590" width="120" height="80" as="geometry" />
        </mxCell>
      </root>
    </mxGraphModel>
  </diagram>
</mxfile>
